<mxfile host="app.diagrams.net" modified="2020-09-20T05:57:34.896Z" agent="5.0 (Windows NT 10.0; Win64; x64) AppleWebKit/537.36 (KHTML, like Gecko) Chrome/85.0.4183.102 Safari/537.36" etag="ZhmxwyXf-W9TPQ3Prrs3" version="13.7.3" type="github">
  <diagram id="m5e-ou4DL4kr0jXQwC1v" name="Page-1">
    <mxGraphModel dx="1320" dy="484" grid="1" gridSize="10" guides="1" tooltips="1" connect="1" arrows="1" fold="1" page="1" pageScale="1" pageWidth="827" pageHeight="1169" math="0" shadow="0">
      <root>
        <mxCell id="0" />
        <mxCell id="1" parent="0" />
        <mxCell id="npccBUpJlFHBpepRetwu-3" value="&lt;h1&gt;第一段&lt;/h1&gt;&lt;p&gt;跨越山河去擁抱你，多大風浪都在一起&lt;/p&gt;&lt;p&gt;聽到最美的記憶，關於你所有的消息。&lt;/p&gt;&lt;p&gt;盼望每天都看到你，雨天也風和日麗。&lt;/p&gt;&lt;p&gt;花花綠綠的世界裡，我只會喜歡你。&lt;/p&gt;&lt;p&gt;願你在我看不到的地方安然無恙，&lt;/p&gt;&lt;p&gt;願你的冬天永遠不缺暖陽。&lt;/p&gt;&lt;p&gt;願你的明天不再經歷雨打風霜，&lt;/p&gt;&lt;p&gt;&lt;span&gt;願你的未來永遠熱淚盈眶。&lt;/span&gt;.&lt;/p&gt;" style="text;html=1;strokeColor=none;fillColor=none;spacing=5;spacingTop=-20;whiteSpace=wrap;overflow=hidden;rounded=0;" vertex="1" parent="1">
          <mxGeometry x="60" y="40" width="270" height="250" as="geometry" />
        </mxCell>
      </root>
    </mxGraphModel>
  </diagram>
</mxfile>
